<?xml version="1.0" encoding="utf-8"?>
<!-- Generator: Adobe Illustrator 16.0.0, SVG Export Plug-In . SVG Version: 6.00 Build 0)  -->
<!DOCTYPE svg PUBLIC "-//W3C//DTD SVG 1.1//EN" "http://www.w3.org/Graphics/SVG/1.1/DTD/svg11.dtd">
<svg version="1.1" id="Layer_1" xmlns="http://www.w3.org/2000/svg" xmlns:xlink="http://www.w3.org/1999/xlink" x="0px" y="0px"
	 width="100px" height="100px" viewBox="0 0 100 100" enable-background="new 0 0 100 100" xml:space="preserve">
<path fill="#CF659B" d="M83.045,57.222c-3.233,0.018-6.033,0.794-8.382,1.949c-0.866-1.715-1.734-3.215-1.878-4.334
	c-0.162-1.301-0.362-2.096-0.162-3.648c0.197-1.554,1.102-3.758,1.102-3.939c-0.02-0.163-0.199-0.957-2.06-0.975
	c-1.861-0.018-3.468,0.361-3.65,0.849c-0.179,0.488-0.54,1.608-0.776,2.764c-0.324,1.698-3.721,7.714-5.653,10.875
	c-0.632-1.229-1.175-2.312-1.283-3.18c-0.161-1.301-0.361-2.096-0.161-3.649c0.198-1.553,1.102-3.757,1.102-3.938
	c-0.019-0.162-0.199-0.957-2.06-0.975s-3.469,0.361-3.647,0.849c-0.182,0.488-0.381,1.644-0.778,2.764
	c-0.379,1.12-4.895,11.163-6.07,13.782c-0.596,1.338-1.12,2.403-1.499,3.125c-0.38,0.723-0.018,0.055-0.054,0.127
	c-0.326,0.614-0.506,0.956-0.506,0.956v0.02c-0.252,0.451-0.523,0.885-0.65,0.885c-0.09,0-0.271-1.21,0.036-2.872
	c0.668-3.486,2.293-8.923,2.275-9.123c0-0.089,0.307-1.047-1.047-1.534c-1.319-0.488-1.789,0.324-1.896,0.324
	c-0.108,0-0.199,0.289-0.199,0.289s1.462-6.123-2.8-6.123c-2.674,0-6.359,2.908-8.184,5.563c-1.156,0.633-3.612,1.97-6.214,3.396
	c-0.994,0.542-2.022,1.12-2.998,1.644l-0.199-0.217c-5.167-5.51-14.722-9.412-14.325-16.818c0.145-2.69,1.085-9.79,18.354-18.388
	c14.144-7.044,25.47-5.112,27.438-0.812c2.8,6.142-6.051,17.558-20.754,19.201c-5.6,0.633-8.544-1.535-9.285-2.347
	c-0.776-0.849-0.885-0.885-1.173-0.722c-0.47,0.252-0.181,1.011,0,1.462c0.433,1.139,2.239,3.161,5.31,4.173
	c2.691,0.885,9.267,1.372,17.214-1.698c8.906-3.45,15.86-13.023,13.818-21.026c-2.077-8.146-15.588-10.82-28.359-6.286
	c-7.605,2.71-15.842,6.937-21.767,12.482c-7.045,6.575-8.165,12.319-7.695,14.704c1.644,8.507,13.367,14.053,18.063,18.155
	c-0.235,0.125-0.452,0.252-0.65,0.36c-2.348,1.156-11.29,5.835-13.529,10.783c-2.53,5.601,0.397,9.629,2.348,10.17
	c6.034,1.681,12.211-1.336,15.553-6.304c3.324-4.968,2.927-11.416,1.391-14.36l-0.054-0.108l1.842-1.084
	c1.193-0.704,2.367-1.354,3.396-1.914c-0.578,1.57-0.994,3.432-1.21,6.14c-0.253,3.181,1.048,7.299,2.764,8.925
	c0.758,0.704,1.662,0.723,2.222,0.723c1.986,0,2.89-1.645,3.884-3.613c1.228-2.402,2.312-5.184,2.312-5.184
	s-1.355,7.532,2.348,7.532c1.354,0,2.709-1.752,3.323-2.655v0.019c0,0,0.036-0.055,0.108-0.182c0.077-0.111,0.149-0.227,0.217-0.343
	v-0.036c0.542-0.938,1.752-3.088,3.56-6.647c2.329-4.588,4.57-10.332,4.57-10.332s0.217,1.408,0.885,3.721
	c0.397,1.374,1.264,2.872,1.932,4.335c-0.541,0.76-0.866,1.192-0.866,1.192l0.018,0.019c-0.433,0.578-0.921,1.192-1.426,1.807
	c-1.845,2.204-4.047,4.715-4.336,5.438c-0.344,0.849-0.271,1.48,0.397,1.987c0.487,0.361,1.354,0.432,2.275,0.361
	c1.663-0.108,2.818-0.524,3.396-0.778c0.902-0.325,1.933-0.812,2.926-1.534c1.807-1.337,2.908-3.233,2.8-5.763
	c-0.054-1.392-0.506-2.764-1.065-4.064c0.163-0.235,0.325-0.47,0.487-0.723c2.854-4.172,5.059-8.761,5.059-8.761
	s0.217,1.409,0.885,3.721c0.343,1.175,1.03,2.457,1.645,3.722c-2.674,2.186-4.354,4.715-4.932,6.377
	c-1.065,3.07-0.235,4.462,1.336,4.787c0.704,0.145,1.717-0.181,2.475-0.506c0.939-0.307,2.078-0.832,3.125-1.608
	c1.807-1.336,3.54-3.197,3.451-5.708c-0.055-1.156-0.362-2.294-0.777-3.378c2.275-0.939,5.22-1.481,8.96-1.03
	c8.037,0.94,9.628,5.961,9.32,8.058c-0.307,2.095-1.987,3.252-2.547,3.612c-0.56,0.344-0.74,0.47-0.687,0.723
	c0.072,0.379,0.325,0.361,0.812,0.289c0.669-0.108,4.228-1.717,4.372-5.582C96.123,62.586,91.408,57.167,83.045,57.222
	L83.045,57.222z M21.05,78.12c-2.655,2.908-6.395,4.011-7.984,3.071c-1.715-0.993-1.048-5.274,2.222-8.364
	c1.987-1.879,4.57-3.612,6.268-4.678c0.379-0.234,0.958-0.578,1.644-0.994c0.108-0.072,0.181-0.108,0.181-0.108
	c0.126-0.072,0.271-0.162,0.416-0.252C25.006,71.202,23.85,75.067,21.05,78.12L21.05,78.12z M40.469,64.917
	c-0.921,2.257-2.873,8.055-4.046,7.729c-1.012-0.271-1.626-4.66-0.199-8.995c0.723-2.186,2.258-4.787,3.162-5.798
	c1.462-1.627,3.053-2.168,3.45-1.5C43.305,57.222,41.046,63.507,40.469,64.917z M56.492,72.574c-0.398,0.199-0.76,0.345-0.923,0.235
	c-0.126-0.072,0.163-0.342,0.163-0.342s2.005-2.15,2.8-3.145c0.451-0.577,0.993-1.246,1.571-2.004v0.216
	C60.104,70.136,57.611,71.87,56.492,72.574L56.492,72.574z M68.847,69.757c-0.289-0.217-0.253-0.885,0.723-2.98
	c0.379-0.831,1.246-2.221,2.745-3.54c0.181,0.542,0.289,1.065,0.271,1.554C72.567,68.041,70.255,69.251,68.847,69.757z"/>
</svg>
